<svg width="82" height="82" viewBox="0 0 82 82" fill="none" xmlns="http://www.w3.org/2000/svg">
<path d="M62.7637 23.8524L41.3142 18.2691C41.0485 18.2007 40.7441 18.2006 40.4817 18.2691C39.5849 18.5025 19.7709 23.66 19.0321 23.8521C18.2192 24.0637 17.6944 24.8516 17.8124 25.6833L19.7003 38.9844C21.4381 51.2319 29.0526 61.9463 40.134 67.5938C40.1347 67.5941 40.1355 67.5945 40.1362 67.5949C40.5906 67.8299 41.1375 67.8568 41.6597 67.5949C41.6604 67.5946 41.661 67.5942 41.6617 67.5939C52.7143 61.9605 60.3527 51.2668 62.0954 38.9845L63.9832 25.6836C64.1014 24.8518 63.5765 24.0639 62.7637 23.8524ZM58.824 38.5202C57.3612 48.8297 51.3498 57.9141 42.5502 63.3113V22.0052L60.5047 26.6788L58.824 38.5202Z" fill="#2B3E13"/>
<circle cx="41" cy="41" r="39" stroke="#B1FF4F" stroke-width="4"/>
</svg>
