<svg width="72" height="72" viewBox="0 0 72 72" fill="none" xmlns="http://www.w3.org/2000/svg">
<path d="M21.4638 25.3056L25.9448 29.7866L35.9993 19.8822V23.9897H40.2346V12.7061H28.9509V16.9413H32.9496L25.9673 23.8193L21.4638 19.3159L3.44824 37.3316L6.44302 40.3264L21.4638 25.3056Z" fill="#B1FF4F"/>
<path d="M12.7061 72.0006H21.1766C21.1766 70.6039 21.1766 48.0891 21.1766 46.5889H12.7061V72.0006Z" fill="#2B3E13"/>
<path d="M25.4111 72.0005H33.8817C33.8817 70.6769 33.8817 44.3311 33.8817 42.3535H25.4111V72.0005Z" fill="#2B3E13"/>
<path d="M72.0005 21.1764L64.0593 10.5882L72.0005 0C70.5746 0 45.7773 0 44.4711 0V38.1176H38.1182V71.9999H55.0593V38.1176H48.7064V21.1764H72.0005Z" fill="#2B3E13"/>
<path d="M8.47058 50.8232H0V71.9997H8.47058C8.47058 71.022 8.47058 51.7974 8.47058 50.8232Z" fill="#2B3E13"/>
</svg>
