<svg width="80" height="80" viewBox="0 0 80 80" fill="none" xmlns="http://www.w3.org/2000/svg">
<path d="M4.6875 40C4.6875 20.5286 20.5286 4.6875 40 4.6875C47.323 4.6875 54.3067 6.90797 60.1869 11.0292H55.6441C54.3497 11.0292 53.3003 12.0786 53.3003 13.373C53.3003 14.6673 54.3497 15.7167 55.6441 15.7167H66.6272C67.9216 15.7167 68.9709 14.6673 68.9709 13.373V2.38984C68.9709 1.09547 67.9216 0.0460937 66.6272 0.0460937C65.3328 0.0460937 64.2834 1.09547 64.2834 2.38984V8.22406C57.3417 2.89047 48.8922 0 40 0C29.3156 0 19.2708 4.16078 11.7156 11.7156C4.16078 19.2708 0 29.3156 0 40C0 47.0189 1.85484 53.9347 5.36406 59.9997C5.79844 60.7506 6.58563 61.17 7.39484 61.17C7.79328 61.17 8.19703 61.0683 8.56656 60.8545C9.68688 60.2062 10.0695 58.7725 9.42141 57.652C6.32453 52.2997 4.6875 46.1956 4.6875 40Z" fill="#B1FF4F"/>
<path d="M74.636 20.0003C73.9876 18.8799 72.5535 18.4974 71.4335 19.1456C70.3132 19.7939 69.9305 21.2277 70.5787 22.3481C73.6755 27.7002 75.3126 33.8041 75.3126 40C75.3126 59.4714 59.4715 75.3125 40.0001 75.3125C32.6777 75.3125 25.6952 73.0914 19.8157 68.9708H24.356C25.6504 68.9708 26.6998 67.9214 26.6998 66.627C26.6998 65.3327 25.6504 64.2833 24.356 64.2833H13.373C12.0787 64.2833 11.0293 65.3327 11.0293 66.627V77.6102C11.0293 78.9045 12.0787 79.9539 13.373 79.9539C14.6674 79.9539 15.7168 78.9045 15.7168 77.6102V71.7702C22.6584 77.1055 31.1068 80 40.0001 80C50.6845 80 60.7293 75.8392 68.2845 68.2844C75.8393 60.7292 80.0001 50.6844 80.0001 40C80.0001 32.9808 78.1452 26.065 74.636 20.0003Z" fill="#B1FF4F"/>
<path d="M60.0644 33.938C60.2253 33.3375 60.1411 32.6978 59.8302 32.1595L56.7052 26.7469C56.058 25.6259 54.6247 25.2419 53.5036 25.8891L51.3783 27.1161C49.6513 25.5856 47.6508 24.4295 45.4688 23.7011V21.25C45.4688 19.9556 44.4194 18.9062 43.125 18.9062H36.875C35.5806 18.9062 34.5313 19.9556 34.5313 21.25V23.7009C32.3492 24.4294 30.3486 25.5855 28.6216 27.1159L26.4964 25.8889C25.3755 25.2414 23.9419 25.6256 23.2949 26.7467L20.1699 32.1594C19.5227 33.2803 19.9067 34.7137 21.0277 35.3609L23.1524 36.5877C22.9264 37.7069 22.8124 38.8486 22.8124 39.9998C22.8124 41.1511 22.9263 42.293 23.1524 43.412L21.0277 44.6387C19.9067 45.2859 19.5227 46.7194 20.1699 47.8403L23.2949 53.253C23.942 54.3741 25.3753 54.7581 26.4964 54.1108L28.6216 52.8838C30.3486 54.4144 32.3491 55.5703 34.5313 56.2988V58.75C34.5313 60.0444 35.5806 61.0938 36.875 61.0938H43.125C44.4194 61.0938 45.4688 60.0444 45.4688 58.75V56.2991C47.6508 55.5706 49.6513 54.4145 51.3783 52.8841L53.5036 54.1111C54.6245 54.7583 56.058 54.3741 56.7052 53.2533L59.8302 47.8406C60.1409 47.3023 60.2252 46.6625 60.0644 46.0622C59.9036 45.4617 59.5108 44.9498 58.9724 44.6391L56.8475 43.4122C57.0735 42.2931 57.1874 41.1514 57.1874 40C57.1874 38.8486 57.0735 37.7069 56.8475 36.5878L58.9724 35.3609C59.5106 35.0503 59.9036 34.5383 60.0644 33.938ZM39.9999 46.25C36.5481 46.25 33.7499 43.4517 33.7499 40C33.7499 36.5483 36.5481 33.75 39.9999 33.75C43.4516 33.75 46.2499 36.5483 46.2499 40C46.2499 43.4517 43.4516 46.25 39.9999 46.25Z" fill="#2B3E13"/>
</svg>
